<svg xmlns="http://www.w3.org/2000/svg" width="121" height="55" viewBox="0 0 121 55" fill="none">
<g clip-path="url(#clip0_1_6645)">
<path d="M97.4626 40.5771C96.3643 41.0242 95.2661 41.4892 94.1678 41.9631C91.8747 42.9646 89.5816 43.9839 87.2445 44.7976C85.7597 44.5741 82.3068 44.1627 79.838 45.2447C76.3499 44.0733 72.8268 43.814 69.6023 43.4206C68.2932 43.3848 67.0544 43.5815 65.8771 43.966C61.0097 45.5308 57.3196 50.1447 54.5608 53.2027C57.6007 53.2743 60.7285 53.0239 63.4961 51.5754C65.0688 50.7527 65.9562 50.1536 66.9226 49.5188C67.7836 48.9555 68.7237 48.3743 70.2701 47.5963C71.667 46.8899 75.4801 47.1403 77.3691 47.7752L77.413 47.793C77.2725 48.1686 77.1758 48.562 77.1494 48.9465C76.1742 49.0091 75.445 50.0553 75.1814 50.7796C75.6558 50.6901 76.5872 50.5918 77.29 50.3951C77.4745 50.9852 77.8348 51.5038 78.3883 51.8883C82.3068 55.456 89.0456 54.0701 92.1295 52.5142L92.1998 52.6573C92.3667 52.702 93.913 53.6856 94.6247 53.9091C95.2924 53.9091 96.7245 53.5425 98.1215 53.2564C100.687 52.6841 103.613 51.8794 105.159 50.7885C101.917 50.8153 95.7493 49.8943 95.6614 49.6797C95.5911 49.5098 95.556 49.2684 95.5296 48.9465C96.3116 46.881 99.5185 46.7737 101.39 46.4071C103.859 45.9242 105.871 46.5323 108.12 47.346C110.65 48.267 113.488 49.4473 117.609 49.5993L120.13 49.9659C115.201 45.5129 104.658 38.0556 97.4538 40.5861L97.4626 40.5771Z" fill="white"/>
<path d="M80.7781 48.6604C80.3739 48.6604 80.04 48.3206 80.04 47.9093C80.04 47.498 80.3739 47.1582 80.7781 47.1582C81.1822 47.1582 81.5161 47.498 81.5161 47.9093C81.5161 48.3206 81.1822 48.6604 80.7781 48.6604Z" fill="#343945"/>
<path d="M85.0039 55C82.1133 55 79.6533 54.1595 77.8961 52.5768C77.3338 52.1834 76.9033 51.6379 76.6309 51.0031L76.6133 50.9673H76.5782C76.3498 51.012 76.1038 51.0567 75.7699 51.1015H75.7523C75.5678 51.1283 75.4097 51.1551 75.2779 51.1819C75.2515 51.1819 75.2339 51.1819 75.2076 51.1819C75.0846 51.1819 74.9704 51.1283 74.8913 51.0299C74.7946 50.9137 74.7683 50.7617 74.821 50.6186C75.0407 50.0285 75.559 49.1969 76.3058 48.7766H76.3234V48.7409C76.3322 48.6336 76.3498 48.5263 76.3673 48.419V48.3742L76.3322 48.3653C75.3569 48.1418 74.1621 48.0166 73.0375 48.0166C71.9129 48.0166 71.0958 48.1328 70.6653 48.3564C68.9608 49.2148 68.047 49.8049 67.0806 50.4398C66.2196 51.0031 65.3322 51.5754 63.9001 52.3265C60.9216 53.8823 57.6796 54.0611 55.5007 54.0611C55.202 54.0611 54.8945 54.0611 54.5431 54.0522C54.2092 54.0522 53.9017 53.8376 53.7699 53.5246C53.6381 53.2117 53.6996 52.8451 53.928 52.5947C54.2092 52.2817 54.4991 51.9598 54.7978 51.6201H54.8066C58.2068 47.7752 62.8633 42.5264 69.2683 42.5264C69.3825 42.5264 69.5055 42.5264 69.6285 42.5264C69.6549 42.5264 69.6812 42.5264 69.7076 42.5264C70.2084 42.589 70.7268 42.6427 71.2451 42.7053C74.0127 43.0182 76.8681 43.3491 79.7939 44.2879H79.8114H79.829C80.9624 43.8498 82.3593 43.6352 83.9672 43.6352C84.96 43.6352 86.0319 43.7157 87.1477 43.8856H87.1565H87.1653C89.2475 43.1434 91.3298 42.2313 93.1748 41.4355C94.4664 40.8722 95.8018 40.291 97.1461 39.7545C97.1549 39.7545 97.1725 39.7456 97.1812 39.7456C98.2355 39.379 99.3953 39.1912 100.634 39.1912C109.279 39.1912 119.559 48.267 120.71 49.3042C120.991 49.5635 121.079 49.9748 120.921 50.3235C120.78 50.6275 120.473 50.8332 120.139 50.8332C120.139 50.8332 120.06 50.8332 120.016 50.8332L117.538 50.4755C113.681 50.3325 110.94 49.3221 108.533 48.4279C106.609 47.7215 104.957 47.1135 103.156 47.1135C102.62 47.1135 102.101 47.1671 101.565 47.2744C101.232 47.337 100.854 47.3996 100.494 47.4533C99.0087 47.6857 97.1637 47.9629 96.4959 48.9644L96.4608 49.018H96.5223C98.0774 49.3399 102.347 49.9212 105.001 49.9212C105.053 49.9212 105.115 49.9212 105.168 49.9212C105.554 49.9212 105.879 50.1626 105.994 50.5292C106.108 50.8958 105.976 51.2892 105.668 51.5128C103.402 53.1223 98.5606 54.1058 95.6701 54.687L95.222 54.7765C95.1693 54.7854 95.1078 54.7943 95.055 54.7943C95.0463 54.7943 95.0375 54.7943 95.0199 54.7943C95.0199 54.7943 95.0023 54.7943 94.9935 54.7943C94.9672 54.7943 94.9408 54.7943 94.9232 54.7943C94.6685 54.7943 94.4225 54.6692 94.2643 54.5887C92.7971 53.8376 92.2523 53.5962 92.059 53.5336H92.0415H92.0239C89.9328 54.4635 87.3058 55.0179 85.0039 55.0179V55ZM83.7387 45.4056C82.0079 45.4325 80.5934 45.7544 79.6269 46.3266C78.8362 46.8095 78.2124 47.7841 78.0542 48.8124V48.8392L78.0718 48.8571C78.5199 49.1879 78.7044 49.5277 78.6429 49.8854C78.6078 50.091 78.4847 50.2609 78.2827 50.4129L78.2563 50.4308L78.2739 50.4666C78.4232 50.7527 78.6253 50.9852 78.8889 51.1551C78.924 51.1819 78.9592 51.1998 78.9855 51.2266C80.4352 52.5411 82.5351 53.2385 85.0742 53.2385C88.5095 53.2385 91.7603 51.9777 92.7971 51.0657C92.9552 50.9316 93.1573 50.8511 93.3594 50.8511C93.6054 50.8511 93.8426 50.9584 94.0095 51.1551C94.317 51.5128 94.2819 52.0671 93.9304 52.3801L93.8865 52.4248L93.948 52.4516C94.2555 52.6036 94.607 52.7825 95.0287 52.9971H95.0638H95.0814L95.345 52.9434C96.5047 52.7109 98.095 52.389 99.6852 51.9777L99.7555 51.9598L99.7028 51.9062C99.5095 51.7005 99.1141 51.4323 98.5343 51.1015C95.1517 50.6454 95.0726 50.4577 94.8969 50.0016C94.8002 49.7423 94.7387 49.4472 94.7036 49.0091C94.6948 48.8839 94.7124 48.7498 94.7563 48.6246C95.5822 46.4339 98.2795 46.0137 100.256 45.7096C100.617 45.656 100.959 45.6023 101.258 45.5398C101.89 45.4146 102.514 45.352 103.156 45.352C105.282 45.352 107.153 46.0405 109.139 46.7737L109.429 46.881H109.438C110.255 46.7737 110.94 46.5323 111.221 46.2551C111.353 46.1299 111.353 46.0405 111.353 46.0137C111.344 45.0837 109.227 43.4564 103.323 41.677C102.33 41.373 101.39 41.2299 100.458 41.2299C98.9648 41.2299 97.7084 41.5965 96.3817 41.9899L96.2411 42.0346C95.4153 42.3834 94.5806 42.741 93.8689 43.054C91.9185 43.9034 89.7132 44.8602 87.5079 45.6381C87.5079 45.6381 87.4816 45.6381 87.4816 45.6471C86.5239 45.9779 85.6717 46.2461 84.8546 46.4697C84.7843 46.4876 84.7052 46.4965 84.6349 46.4965C84.2483 46.4965 83.9057 46.2283 83.809 45.8438C83.7739 45.7186 83.7739 45.5845 83.8002 45.4503V45.3967H83.7563L83.7387 45.4056ZM69.3034 44.2879C67.7659 44.2879 66.2108 44.6545 64.6732 45.3877C64.1637 45.7275 63.6804 46.0673 63.1884 46.4071L62.7491 46.7111C59.7092 48.8213 59.9816 49.5277 59.9991 49.5545C60.1133 49.8139 60.702 49.9569 61.6245 49.9569C62.3274 49.9569 63.5574 49.8675 65.4376 49.4562C65.6836 49.3042 65.9121 49.1522 66.1493 48.9912C67.1157 48.3564 68.1173 47.7126 69.9009 46.8095C70.7443 46.3892 72.071 46.2998 73.0287 46.2998C74.329 46.2998 75.7875 46.4607 76.9296 46.7379H76.9648L76.9824 46.72C77.202 46.3087 77.4744 45.9421 77.7819 45.6113L77.8346 45.5576L77.7643 45.5398C75.4975 44.9675 73.2395 44.7082 71.0606 44.4668C70.551 44.4131 70.0502 44.3505 69.5494 44.2879C69.4616 44.2879 69.3737 44.2879 69.2947 44.2879H69.3034Z" fill="#343945"/>
<path d="M55.0879 1.89563C51.1782 0.92993 47.655 0.500732 45.3267 1.23395C40.9953 2.60202 38.7461 9.77321 35.4953 13.6807C34.274 13.5555 33.167 13.5376 32.262 13.5913C30.6542 13.6896 28.4841 14.2261 26.8763 15.5853C26.7181 15.7194 26.5775 15.8535 26.437 15.9966C19.3818 12.5183 16.2101 8.70915 12.0719 11.5884C10.7453 12.5093 8.909 15.2813 7.0991 18.3751C4.31396 23.132 1.59031 28.6579 0.852295 29.4537C4.05916 28.8189 6.58951 27.1289 8.67178 25.1528C11.9402 22.059 14.1366 18.2856 16.1926 16.8639C19.2325 14.7537 21.2269 15.6747 25.2509 17.4541L25.3387 17.4988C25.04 18.0979 24.8994 18.7238 24.9609 19.3229L25.0224 19.7163C24.2668 20.1366 23.6957 20.843 23.318 21.7192C23.4146 21.7103 24.9258 21.3795 25.8571 21.0665V21.1112C26.437 21.6566 27.3068 22.1127 28.5104 22.4435C32.4114 23.4897 37.3842 22.6939 40.8635 20.9234C42.9545 21.3079 43.3323 21.7371 45.2037 20.4585C46.9609 19.2513 48.8148 17.5703 50.2556 16.0145C48.7445 16.0413 46.2317 16.542 44.5711 16.7477C44.2109 16.3095 43.5168 15.8535 42.3659 15.3707C42.2517 15.326 42.1462 15.2813 42.032 15.2365C43.0863 14.3066 43.6662 12.8849 44.0703 12.0086C45.3707 9.26354 46.179 3.17428 50.8794 4.77483C52.6806 5.39181 58.2333 7.3232 63.7684 8.21736C67.4585 8.81645 71.1398 8.95952 73.6878 7.94912C68.7325 6.36645 61.4138 3.45147 55.0967 1.90457L55.0879 1.89563Z" fill="white"/>
<path d="M0.861205 30.3302C0.544911 30.3302 0.254975 30.1514 0.105614 29.8742C-0.0701052 29.5434 -0.0173895 29.132 0.237403 28.8548C0.562483 28.5061 1.70466 26.3959 2.8029 24.3661C5.4914 19.3767 9.18149 12.5542 11.5976 10.8732C12.7398 10.0863 13.8644 9.70186 15.0329 9.70186C17.1855 9.70186 19.3029 10.9537 21.9738 12.5364C23.2214 13.2785 24.636 14.1101 26.2701 14.9417H26.2965L26.3316 14.9238C28.4491 13.1265 31.1551 12.7867 32.2182 12.7241C32.5433 12.7062 32.886 12.6973 33.2462 12.6973C33.8348 12.6973 34.4586 12.7241 35.1 12.7778H35.1264L35.144 12.7599C36.128 11.4902 37.0329 9.91646 37.9203 8.38744C39.8971 4.95385 41.9443 1.40402 45.0984 0.411498C45.9419 0.143249 46.9698 0.00912476 48.1559 0.00912476C53.6384 0.00912476 61.8444 2.89727 68.4339 5.2221L68.469 5.23998C70.4634 5.94637 72.3436 6.60805 73.9602 7.11773C74.3117 7.22502 74.5489 7.55587 74.5577 7.92247C74.5665 8.28908 74.3468 8.62886 74.013 8.76299C72.6599 9.29948 70.9555 9.56773 68.9347 9.56773C64.4626 9.56773 58.3476 8.24437 50.7566 5.64236L50.6336 5.59765C50.2118 5.45458 49.8165 5.38305 49.465 5.38305C47.5497 5.38305 46.6799 7.43068 45.6607 10.3278C45.3971 11.0789 45.1511 11.7853 44.87 12.3754C44.8348 12.4559 44.7909 12.5453 44.747 12.6347L44.7206 12.6794C44.4483 13.2696 44.0793 14.0833 43.517 14.8522L43.4906 14.8969L43.5345 14.9238C44.1056 15.2099 44.5449 15.496 44.8876 15.8001H44.9051L44.9227 15.809C45.362 15.7464 45.8364 15.6749 46.346 15.5944H46.3724C47.7693 15.3709 49.2102 15.1473 50.2646 15.1294H50.2821C50.6248 15.1294 50.9323 15.3351 51.0641 15.648C51.2047 15.9699 51.1432 16.3455 50.9059 16.6048C49.2893 18.3484 47.3916 20.0116 45.7047 21.174C44.6591 21.8893 43.9123 22.1844 43.1216 22.1844C42.6559 22.1844 42.1727 22.086 41.6368 21.9698C41.4523 21.9251 41.2414 21.8804 41.013 21.8357H40.9954H40.9866C38.4563 23.0696 35.3197 23.776 32.3852 23.776C30.9179 23.776 29.5473 23.6061 28.3173 23.2753C27.0257 22.9265 26.0154 22.4079 25.3037 21.7373C25.3037 21.7373 25.2949 21.7284 25.2861 21.7194C25.2861 21.7194 25.2773 21.7105 25.2686 21.7015L25.251 21.6837H25.2246C24.3372 21.934 23.4235 22.1128 23.3708 22.1218C23.362 22.1218 23.3444 22.1218 23.3356 22.1218C23.2039 22.1218 23.0809 22.0592 23.0106 21.9519C22.9227 21.8357 22.9051 21.6747 22.9666 21.5406C23.2654 20.8253 23.6871 20.2351 24.223 19.7791L24.2494 19.7523L24.2318 19.7254C24.1703 19.6181 24.1352 19.5019 24.1264 19.3857C24.0824 18.9386 24.1264 18.4647 24.2582 17.9818V17.946L24.2318 17.9282C22.2813 17.0698 20.9019 16.4975 19.628 16.4975C18.6615 16.4975 17.7566 16.8283 16.7023 17.5616C15.7446 18.2322 14.6815 19.5466 13.4515 21.0756C10.719 24.4734 6.98501 29.1142 1.04571 30.2855C0.992994 30.2944 0.940278 30.3034 0.878777 30.3034L0.861205 30.3302ZM15.0417 11.4455C14.1983 11.4455 13.4075 11.7227 12.5641 12.3039C11.378 13.1354 9.45386 15.9342 6.6775 20.861V20.87C6.33485 22.4705 6.26456 24.3661 6.89715 24.9921C7.00258 25.0994 7.14315 25.153 7.31887 25.153C7.33644 25.153 7.35402 25.153 7.37159 25.153H7.38916L7.39795 25.1441C9.25178 23.5346 10.763 21.6568 12.0984 19.9937C13.4163 18.3574 14.5497 16.9446 15.7182 16.1398C17.0625 15.2099 18.2925 14.7718 19.5928 14.7718C21.2182 14.7718 22.8436 15.4334 24.9698 16.3723L25.005 16.3902L25.0577 16.3097L25.084 16.265L25.0401 16.2382C23.5465 15.4603 22.2023 14.6645 21.1216 14.0207C18.3979 12.4112 16.632 11.4276 15.0505 11.4276L15.0417 11.4455ZM26.1559 18.9207C26.2701 18.9207 26.3844 18.9743 26.4547 19.0548C26.7622 19.4035 27.2717 20.2172 26.9818 20.8253L26.9642 20.861L26.9994 20.8789C27.4563 21.165 28.0449 21.4065 28.7302 21.5853C29.8109 21.8804 31.0233 22.0234 32.3324 22.0234C35.5393 22.0234 38.9043 21.1382 41.338 19.6539L41.5577 19.5198C41.8476 19.3499 42.1376 19.1621 42.4187 18.9833C42.5593 18.8939 42.7174 18.8492 42.8756 18.8492C43.1743 18.8492 43.4467 19.0012 43.6048 19.2605C43.8069 19.5824 43.7717 20.0026 43.5257 20.2888L43.4291 20.405L43.5697 20.3603C43.8596 20.2709 44.1759 20.092 44.7118 19.7254C45.3356 19.2962 45.9946 18.7866 46.6887 18.2054C46.8556 17.9639 46.9523 17.7404 46.9962 17.5437C47.0138 17.4632 47.0138 17.3917 47.005 17.3112V17.2665L46.592 17.3291C46.1703 17.3917 45.7662 17.4543 45.3796 17.5168H45.362L45.3532 17.5347C45.2829 17.6152 45.2214 17.6778 45.1424 17.7225C45.0106 17.803 44.8612 17.8477 44.7031 17.8477C44.4043 17.8477 44.1144 17.6867 43.965 17.4185C43.9563 17.4006 43.9387 17.3738 43.9123 17.338L43.8947 17.3112C43.7102 17.0877 43.2622 16.7121 42.1639 16.2471H42.1463H42.1288C41.3908 16.7658 40.5473 17.0251 39.6248 17.0251C39.4754 17.0251 39.3261 17.0251 39.1679 17.0072C38.6935 16.9625 38.342 16.5422 38.386 16.0594C38.4211 15.6033 38.7901 15.2636 39.247 15.2636C39.2733 15.2636 39.2909 15.2636 39.3173 15.2636C39.4139 15.2636 39.5194 15.2725 39.616 15.2725C41.461 15.2725 42.3308 13.7077 43.1392 11.9552C43.1919 11.8389 43.2446 11.7316 43.2885 11.6333C43.5257 11.1236 43.763 10.4619 44.009 9.75551C44.9139 7.17137 46.1615 3.63049 49.3596 3.63049C49.9131 3.63049 50.5106 3.73779 51.1432 3.95239L51.2662 3.99709C55.6855 5.50823 59.6128 6.59017 62.9515 7.20714L63.0393 7.22502L63.0042 7.14455C62.4155 5.93743 61.1591 4.93597 58.9451 3.88979C54.2094 2.45019 50.6687 1.75274 48.1384 1.75274C47.1368 1.75274 46.2757 1.86004 45.5816 2.08358C43.0689 2.87939 41.1975 6.13415 39.3788 9.27266C38.4211 10.9269 37.4371 12.6437 36.3213 14.0386V14.0475C36.251 14.1995 36.1455 14.3336 36.0138 14.423C35.5481 14.9685 35.1 15.4066 34.6344 15.7732C34.485 15.8984 34.3005 15.961 34.1072 15.961C33.8436 15.961 33.5976 15.8358 33.4307 15.6212C33.1759 15.2904 33.1935 14.8254 33.4571 14.5125L33.5186 14.4409H33.4219C33.3604 14.4409 33.3077 14.4409 33.2462 14.4409C32.9211 14.4409 32.6136 14.4409 32.3149 14.4678C30.4523 14.584 28.6248 15.2457 27.4299 16.2561C26.4722 17.0698 25.866 18.0623 25.8133 18.9207V18.9743L25.866 18.9654C25.9539 18.9475 26.0329 18.9296 26.1032 18.9207C26.1208 18.9207 26.1384 18.9207 26.1647 18.9207H26.1559Z" fill="#343945"/>
<path d="M28.405 19.0814C28.0623 19.0814 27.7548 18.8311 27.6757 18.4913C27.6318 18.2946 27.6669 18.0889 27.7724 17.919C27.8778 17.7491 28.0447 17.624 28.238 17.5793C28.2907 17.5703 28.3435 17.5614 28.405 17.5614C28.7564 17.5614 29.0551 17.8028 29.1342 18.1515C29.222 18.5628 28.9673 18.9652 28.5719 19.0636C28.5192 19.0725 28.4577 19.0814 28.405 19.0814Z" fill="#343945"/>
</g>
<defs>
<clipPath id="clip0_1_6645">
<rect width="121" height="55" fill="white"/>
</clipPath>
</defs>
<script xmlns=""/></svg>