<svg xmlns="http://www.w3.org/2000/svg" viewBox="-333.433 -296.695 665 590.8">
	<path d=" M321.05499267578125,84.75499725341797 C314.6650085449219,76.09500122070312 301.9649963378906,71.8550033569336 281.0849914550781,71.3949966430664 C277.2449951171875,71.31500244140625 273.0849914550781,71.2750015258789 268.67498779296875,71.2249984741211 C249.3249969482422,71.0250015258789 224.94500732421875,70.76499938964844 203.6649932861328,66.625 C188.9949951171875,78.07499694824219 170.93499755859375,88.09500122070312 149.56500244140625,96.58499908447266 C126.15499877929688,105.8949966430664 88.8550033569336,111.11499786376953 48.28499984741211,111.11499786376953 C39.44499969482422,111.11499786376953 30.454999923706055,110.86499786376953 21.405000686645508,110.3550033569336 C-33.935001373291016,107.25499725341797 -81.75499725341797,94.98500061035156 -109.79499816894531,76.71499633789062 C-110.7249984741211,76.11499786376953 -110.98500061035156,74.875 -110.375,73.95500183105469 C-109.7750015258789,73.0250015258789 -108.53500366210938,72.76499938964844 -107.61499786376953,73.36499786376953 C-107.59500122070312,73.38500213623047 -107.56500244140625,73.3949966430664 -107.54499816894531,73.40499877929688 C-80.06500244140625,91.28500366210938 -32.98500061035156,103.29499816894531 21.635000228881836,106.36499786376953 C71.625,109.17500305175781 120.07499694824219,104.00499725341797 148.0850067138672,92.86499786376953 C165.10499572753906,86.1050033569336 182.77499389648438,77.17500305175781 198.375,65.50499725341797 C199.0449981689453,64.99500274658203 199.71499633789062,64.49500274658203 200.375,63.974998474121094 C201.0749969482422,63.435001373291016 201.77499389648438,62.89500045776367 202.46499633789062,62.334999084472656 C233.8249969482422,37.255001068115234 255.38499450683594,0.2549999952316284 243.36500549316406,-53.834999084472656 C236.40499877929688,-85.18499755859375 214.11500549316406,-100.42500305175781 196.64500427246094,-107.68499755859375 C173.94500732421875,-117.11499786376953 146.44500732421875,-118.55500030517578 122.11499786376953,-112.59500122070312 C121.31500244140625,-112.3949966430664 120.5250015258789,-112.19499969482422 119.74500274658203,-111.9749984741211 C118.93499755859375,-111.76499938964844 118.13500213623047,-111.54499816894531 117.33499908447266,-111.30500030517578 C108.1050033569336,-108.625 99.42500305175781,-104.84500122070312 91.76499938964844,-99.99500274658203 C45.005001068115234,-70.38500213623047 7.934999942779541,-66.51499938964844 -4.454999923706055,-71.03500366210938 C-4.625,-71.09500122070312 -4.784999847412109,-71.18499755859375 -4.925000190734863,-71.28500366210938 C-5.635000228881836,-71.79499816894531 -5.965000152587891,-72.73500061035156 -5.644999980926514,-73.59500122070312 C-5.264999866485596,-74.63500213623047 -4.114999771118164,-75.17500305175781 -3.075000047683716,-74.79499816894531 C6.764999866485596,-71.20500183105469 42.3849983215332,-73.46499633789062 89.625,-103.375 C98.38500213623047,-108.92500305175781 108.42500305175781,-113.125 119.1050033569336,-115.92500305175781 C123.07499694824219,-126.7249984741211 126.79499816894531,-140.38499450683594 128.86500549316406,-155.9250030517578 C132.98500061035156,-186.86500549316406 123.1050033569336,-217.78500366210938 101.03500366210938,-242.98500061035156 C74.33499908447266,-273.4849853515625 33.8849983215332,-291.69500732421875 -7.175000190734863,-291.69500732421875 C-82.18499755859375,-291.69500732421875 -143.2050018310547,-230.6649932861328 -143.2050018310547,-155.6649932861328 C-143.2050018310547,-139.28500366210938 -140.3249969482422,-123.28500366210938 -134.64500427246094,-108.07499694824219 C-134.3350067138672,-107.24500274658203 -134.61500549316406,-106.29499816894531 -135.3350067138672,-105.76499938964844 C-144.02499389648438,-99.33499908447266 -152.05499267578125,-88.95500183105469 -159.05499267578125,-76.32499694824219 C-159.4550018310547,-75.61499786376953 -159.84500122070312,-74.8949966430664 -160.23500061035156,-74.17500305175781 C-160.625,-73.45500183105469 -161.0050048828125,-72.7249984741211 -161.38499450683594,-71.98500061035156 C-175.9250030517578,-43.875 -185.5850067138672,-6.324999809265137 -186.9250030517578,23.725000381469727 C-187.5850067138672,38.35499954223633 -194.35499572753906,54.775001525878906 -207.13499450683594,72.73500061035156 C-207.68499755859375,73.5250015258789 -208.2550048828125,74.32499694824219 -208.85499572753906,75.125 C-209.4149932861328,75.8949966430664 -209.9949951171875,76.68499755859375 -210.59500122070312,77.46499633789062 C-215.30499267578125,83.68499755859375 -220.71499633789062,90.09500122070312 -226.8249969482422,96.66500091552734 C-247.30499267578125,118.71499633789062 -270.67498779296875,137.23500061035156 -282.7749938964844,146.31500244140625 C-304.385009765625,162.51499938964844 -324.82501220703125,180.7050018310547 -328.0050048828125,203.875 C-330.0050048828125,218.44500732421875 -325.0050048828125,233.31500244140625 -312.7049865722656,249.36500549316406 C-297.0050048828125,269.8550109863281 -266.55499267578125,283.4849853515625 -226.96499633789062,287.7449951171875 C-190.3350067138672,291.69500732421875 -147.85499572753906,287.1549987792969 -107.32499694824219,274.94500732421875 C-62.26499938964844,261.364990234375 -20.104999542236328,238.68499755859375 14.585000038146973,209.34500122070312 C29.21500015258789,196.96499633789062 41.404998779296875,207.81500244140625 58.26499938964844,222.84500122070312 C73.93499755859375,236.80499267578125 93.42500305175781,254.1750030517578 124.01499938964844,263.5950012207031 C165.52499389648438,276.364990234375 210.98500061035156,272.7550048828125 245.61500549316406,253.9550018310547 C279.7749938964844,235.40499877929688 303.5050048828125,203.48500061035156 316.1449890136719,159.0850067138672 C330.0050048828125,110.43499755859375 328.2950134277344,94.57499694824219 321.05499267578125,84.75499725341797z M103.08499908447266,-218.97500610351562 C114.32499694824219,-218.97500610351562 123.43499755859375,-201.18499755859375 123.43499755859375,-179.22500610351562 C123.43499755859375,-157.27499389648438 120.25499725341797,-139.47500610351562 103.08499908447266,-139.47500610351562 C85.91500091552734,-139.47500610351562 82.73500061035156,-157.27499389648438 82.73500061035156,-179.22500610351562 C82.73500061035156,-201.18499755859375 91.84500122070312,-218.97500610351562 103.08499908447266,-218.97500610351562z M49.67499923706055,-218.97500610351562 C60.915000915527344,-218.97500610351562 70.0250015258789,-201.18499755859375 70.0250015258789,-179.22500610351562 C70.0250015258789,-157.27499389648438 66.84500122070312,-139.47500610351562 49.67499923706055,-139.47500610351562 C32.51499938964844,-139.47500610351562 29.334999084472656,-157.27499389648438 29.334999084472656,-179.22500610351562 C29.334999084472656,-201.18499755859375 38.44499969482422,-218.97500610351562 49.67499923706055,-218.97500610351562z" stroke="#000" stroke-width="5" fill="#fff"/>
</svg>