<svg xmlns="http://www.w3.org/2000/svg" viewBox="-349.07 -313.375 698.7 620.2">
	<path d=" M333.69000244140625,-128.1750030517578 C318.8900146484375,-160.59500122070312 297.82000732421875,-178.625 269.260009765625,-183.2949981689453 C244.14999389648438,-187.39500427246094 213.72000122070312,-181.0749969482422 176.2100067138672,-163.96499633789062 C163.3000030517578,-158.0749969482422 150.5800018310547,-151.375 138.38999938964844,-144.05499267578125 C136.35000610351562,-135.88499450683594 132.42999267578125,-125.70500183105469 127.18000030517578,-118.46499633789062 C126.79000091552734,-117.92500305175781 126.18000030517578,-117.63500213623047 125.55999755859375,-117.63500213623047 C125.1500015258789,-117.63500213623047 124.73999786376953,-117.75499725341797 124.38999938964844,-118.01499938964844 C123.5,-118.66500091552734 123.29000091552734,-119.91500091552734 123.94000244140625,-120.80500030517578 C129.7899932861328,-128.88499450683594 133.9199981689453,-140.9149932861328 135.39999389648438,-149.06500244140625 C135.44000244140625,-149.34500122070312 135.49000549316406,-149.61500549316406 135.52999877929688,-149.875 C135.52999877929688,-149.88499450683594 135.52999877929688,-149.89500427246094 135.5399932861328,-149.90499877929688 C136.75999450683594,-157.2949981689453 137.3800048828125,-164.8350067138672 137.3800048828125,-172.34500122070312 C137.3800048828125,-247.35499572753906 76.36000061035156,-308.375 1.3600000143051147,-308.375 C-73.6500015258789,-308.375 -134.6699981689453,-247.35499572753906 -134.6699981689453,-172.34500122070312 C-134.6699981689453,-155.97500610351562 -131.7899932861328,-139.96499633789062 -126.11000061035156,-124.76499938964844 C-125.87999725341797,-124.13500213623047 -125.9800033569336,-123.42500305175781 -126.37999725341797,-122.88500213623047 C-126.7699966430664,-122.33499908447266 -127.41000366210938,-122.0250015258789 -128.08999633789062,-122.06500244140625 C-163.3300018310547,-123.93499755859375 -208.27000427246094,-115.40499877929688 -251.36000061035156,-98.66500091552734 C-289.7799987792969,-83.7249984741211 -315.54998779296875,-66.33499908447266 -330.1199951171875,-45.474998474121094 C-346.70001220703125,-21.7549991607666 -348.4800109863281,5.925000190734863 -335.57000732421875,39.1349983215332 C-323.6300048828125,69.86499786376953 -305.6700134277344,88.53500366210938 -280.6600036621094,96.21499633789062 C-258.3800048828125,103.05500030517578 -231.0500030517578,100.98500061035156 -197.1199951171875,89.8949966430664 C-191.77000427246094,88.1449966430664 -186.14999389648438,86.13500213623047 -180.41000366210938,83.90499877929688 C-176.47999572753906,82.375 -172.50999450683594,80.75499725341797 -168.55999755859375,79.06500244140625 C-168.5500030517578,79.05500030517578 -168.5,79.03500366210938 -168.41000366210938,78.99500274658203 C-168.3300018310547,78.95500183105469 -168.2100067138672,78.90499877929688 -168.0500030517578,78.83499908447266 C-167.97999572753906,78.80500030517578 -167.89999389648438,78.76499938964844 -167.80999755859375,78.7249984741211 C-162.32000732421875,76.21499633789062 -128.10000610351562,60.46500015258789 -112.30999755859375,49.45500183105469 C-111.4000015258789,48.82500076293945 -110.16000366210938,49.04499816894531 -109.52999877929688,49.94499969482422 C-108.88999938964844,50.85499954223633 -109.12000274658203,52.10499954223633 -110.0199966430664,52.73500061035156 C-116.66999816894531,57.3650016784668 -126.30000305175781,62.73500061035156 -135.75,67.625 C-138.13999938964844,68.86499786376953 -140.50999450683594,70.06500244140625 -142.82000732421875,71.21499633789062 C-149.39999389648438,74.51499938964844 -155.49000549316406,77.41500091552734 -159.89999389648438,79.4749984741211 C-159.88999938964844,79.49500274658203 -159.88999938964844,79.51499938964844 -159.8800048828125,79.53500366210938 C-151.66000366210938,112.96499633789062 -129.83999633789062,152.60499572753906 -98.29000091552734,191.36500549316406 C-80.33999633789062,213.4250030517578 -60.189998626708984,233.9550018310547 -39.84000015258789,251.19500732421875 C-39.33000183105469,251.625 -38.810001373291016,252.05499267578125 -38.29999923706055,252.48500061035156 C-37.779998779296875,252.9250030517578 -37.27000045776367,253.35499572753906 -36.75,253.77499389648438 C-24.040000915527344,264.32501220703125 -11.270000457763672,273.55499267578125 1.0499999523162842,281.0249938964844 C1.0499999523162842,281.0249938964844 1.7200000286102295,281.43499755859375 1.7200000286102295,281.43499755859375 C41.9900016784668,305.67498779296875 102.73999786376953,308.375 168.39999389648438,288.864990234375 C228.0800018310547,271.114990234375 279.8399963378906,237.72500610351562 300.2799987792969,203.77499389648438 C307.2200012207031,192.2449951171875 309.2699890136719,183.05499267578125 306.5400085449219,175.6750030517578 C301.32000732421875,161.53500366210938 279.2799987792969,154.18499755859375 251.3800048828125,144.89500427246094 C227.44000244140625,136.9149932861328 200.6199951171875,127.98500061035156 176.75,112.32499694824219 C174.02999877929688,110.54499816894531 171.35000610351562,108.67500305175781 168.7100067138672,106.70500183105469 C168.60000610351562,106.625 168.5,106.53500366210938 168.41000366210938,106.43499755859375 C155.9199981689453,97.40499877929688 144.91000366210938,88.2750015258789 136.25999450683594,76.2750015258789 C135.6199951171875,75.38500213623047 135.82000732421875,74.13500213623047 136.72000122070312,73.48500061035156 C137.61000061035156,72.84500122070312 138.8699951171875,73.04499816894531 139.50999450683594,73.94499969482422 C147.49000549316406,85.01499938964844 157.6999969482422,93.65499877929688 169.27999877929688,102.11499786376953 C178.2899932861328,85.38500213623047 180.7100067138672,63.8849983215332 175.88999938964844,42.69499969482422 C175.77000427246094,42.165000915527344 175.8699951171875,41.6150016784668 176.1699981689453,41.154998779296875 C176.47000122070312,40.70500183105469 176.92999267578125,40.39500045776367 177.47000122070312,40.28499984741211 C203.08999633789062,35.35499954223633 231.52999877929688,26.094999313354492 257.5299987792969,14.234999656677246 C276.2799987792969,5.684999942779541 291.8399963378906,-3.315000057220459 304.3699951171875,-12.864999771118164 C316.9100036621094,-22.424999237060547 326.4200134277344,-32.55500030517578 333.1000061035156,-43.3849983215332 C348.2900085449219,-68.01499938964844 348.4800109863281,-95.75499725341797 333.69000244140625,-128.1750030517578z M36.27000045776367,-160.7949981689453 C19.110000610351562,-160.7949981689453 15.930000305175781,-178.59500122070312 15.930000305175781,-200.55499267578125 C15.930000305175781,-222.5050048828125 25.040000915527344,-240.30499267578125 36.27000045776367,-240.30499267578125 C47.5099983215332,-240.30499267578125 56.619998931884766,-222.5050048828125 56.619998931884766,-200.55499267578125 C56.619998931884766,-178.59500122070312 53.439998626708984,-160.7949981689453 36.27000045776367,-160.7949981689453z M89.68000030517578,-160.7949981689453 C72.51000213623047,-160.7949981689453 69.33999633789062,-178.59500122070312 69.33999633789062,-200.55499267578125 C69.33999633789062,-222.5050048828125 78.44000244140625,-240.30499267578125 89.68000030517578,-240.30499267578125 C100.91999816894531,-240.30499267578125 110.02999877929688,-222.5050048828125 110.02999877929688,-200.55499267578125 C110.02999877929688,-178.59500122070312 106.8499984741211,-160.7949981689453 89.68000030517578,-160.7949981689453z" stroke="#000" stroke-width="5" fill="#fff"/>
</svg>